# xmcd CD database file
#
# Track frame offsets:
#	150
#	16444
#	30909
#	48374
#	62765
#	77520
#	96810
#	114444
#	124182
#	140447
#	154500
#
# Disc length: 2224 seconds
#
# Revision: 1
# Processed by: cddbd v1.4PL0 Copyright (c) Steve Scherf et al.
# Submitted via: CDex 1.40Release
#
DISCID=7f08ae0b
DTITLE=Three Bad Jacks - Made Of Stone
DYEAR=2000
DGENRE=Rock and Roll
TTITLE0=Downtown Gonna Rumble
TTITLE1=Oooh, Love Hurts
TTITLE2=Black Cadillac
TTITLE3=It's Forever
TTITLE4=Women Think I'm Handsome
TTITLE5=I Have My Reasons
TTITLE6=I Believe
TTITLE7=Made Of Stone
TTITLE8=Pretty Senorita
TTITLE9=I'm Movin' Out
TTITLE10=Brand New Cadillac
EXTD=YEAR: 2000 ID3G: 78
EXTT0=
EXTT1=
EXTT2=
EXTT3=
EXTT4=
EXTT5=
EXTT6=
EXTT7=
EXTT8=
EXTT9=
EXTT10=
PLAYORDER=
